<svg width="256" height="256" viewBox="0 0 256 256" fill="none" xmlns="http://www.w3.org/2000/svg">
<mask id="mask0_1_28" style="mask-type:luminance" maskUnits="userSpaceOnUse" x="0" y="0" width="256" height="256">
<path d="M256 128C256 57.3076 198.692 0 128 0C57.3076 0 0 57.3076 0 128C0 198.692 57.3076 256 128 256C198.692 256 256 198.692 256 128Z" fill="white"/>
</mask>
<g mask="url(#mask0_1_28)">
<path d="M256 128C256 57.3076 198.692 0 128 0C57.3076 0 0 57.3076 0 128C0 198.692 57.3076 256 128 256C198.692 256 256 198.692 256 128Z" fill="url(#paint0_linear_1_28)"/>
<path fill-rule="evenodd" clip-rule="evenodd" d="M192.313 101.104C194.327 100.941 196.28 100.809 198.167 100.71C207.89 100.198 215.544 100.559 220.771 101.638C223.396 102.179 225.069 102.834 226.021 103.407C226.194 103.511 226.326 103.601 226.425 103.677C226.377 103.791 226.307 103.936 226.21 104.112C225.672 105.084 224.551 106.488 222.548 108.27C218.56 111.816 212.113 115.957 203.437 120.375C186.176 129.164 161.273 138.462 132.85 146.078C104.427 153.694 78.2109 158.093 58.8682 159.112C49.1452 159.624 41.4914 159.262 36.2644 158.184C33.6395 157.643 31.9663 156.987 31.0142 156.414C30.8416 156.311 30.7096 156.22 30.6099 156.145C30.6588 156.03 30.7279 155.886 30.8255 155.71C31.3634 154.737 32.4847 153.333 34.4873 151.552C38.4751 148.005 44.9227 143.864 53.5986 139.447C55.2794 138.591 57.033 137.73 58.855 136.867C58.1957 132.507 57.9557 128.113 58.1277 123.745C54.5609 125.351 51.196 126.959 48.0545 128.559C38.9878 133.175 31.4852 137.87 26.3669 142.423C23.8162 144.691 21.5955 147.153 20.1336 149.796C18.6554 152.469 17.7092 155.806 18.6582 159.348C19.6071 162.889 22.0953 165.307 24.7118 166.882C27.2992 168.439 30.4534 169.461 33.7966 170.151C40.5056 171.534 49.35 171.848 59.5104 171.313C79.9337 170.238 107.02 165.649 136.012 157.88C165.004 150.112 190.756 140.543 208.981 131.263C218.048 126.646 225.55 121.952 230.668 117.399C233.219 115.131 235.44 112.669 236.902 110.026C238.38 107.353 239.326 104.015 238.377 100.474C237.428 96.9325 234.94 94.5152 232.324 92.9395C229.736 91.3819 226.582 90.36 223.238 89.6709C216.53 88.2873 207.685 87.973 197.525 88.5082C194.001 88.6939 190.278 88.9842 186.382 89.3771C188.715 93.0744 190.704 96.999 192.313 101.104ZM182.659 102.079C180.856 98.0102 178.614 94.1672 175.982 90.6156C159.536 92.8535 140.719 96.6637 121.023 101.941C101.322 107.22 83.1168 113.331 67.7534 119.617C67.25 124.008 67.2295 128.458 67.703 132.883C83.3577 126.173 102.773 119.481 124.185 113.743C145.593 108.007 165.749 104.096 182.659 102.079ZM30.4956 156.503C30.4949 156.504 30.4954 156.493 30.4993 156.473C30.4983 156.492 30.4964 156.503 30.4956 156.503ZM226.704 103.929C226.703 103.93 226.696 103.921 226.685 103.905C226.699 103.921 226.704 103.929 226.704 103.929ZM226.536 103.349C226.537 103.329 226.539 103.319 226.54 103.318C226.54 103.318 226.54 103.328 226.536 103.349ZM30.3503 155.917C30.3365 155.9 30.3311 155.892 30.3319 155.892C30.3327 155.892 30.3396 155.9 30.3503 155.917Z" fill="white"/>
<path fill-rule="evenodd" clip-rule="evenodd" d="M190.988 120.785C190.636 117.669 190.05 114.566 189.229 111.5L128 127.906L66.7705 144.312C67.5921 147.378 68.6365 150.357 69.8891 153.232C87.253 151.415 108.648 147.408 131.585 141.262C154.515 135.118 175.044 127.892 190.988 120.785ZM188.886 145.542C173.778 151.601 156.182 157.44 137.277 162.506C118.367 167.573 100.203 171.314 84.0874 173.622C87.7451 177.135 91.8397 180.225 96.3053 182.803C110.865 191.208 128.167 193.486 144.406 189.135C160.645 184.784 174.49 174.16 182.896 159.6C185.474 155.136 187.475 150.414 188.886 145.542Z" fill="white"/>
<path d="M189.229 111.595C184.878 95.3563 174.254 81.5109 159.694 73.1052C145.135 64.6989 127.833 62.4214 111.594 66.7726C95.3548 71.1238 81.5093 81.7475 73.1036 96.3069C64.6973 110.866 62.4198 128.169 66.771 144.408L128 128.001L189.229 111.595Z" fill="white"/>
</g>
<defs>
<linearGradient id="paint0_linear_1_28" x1="256" y1="7.62939e-06" x2="-7.6294e-06" y2="256" gradientUnits="userSpaceOnUse">
<stop offset="0.181887" stop-color="#8D58B3"/>
<stop offset="0.816473" stop-color="#6576CC"/>
</linearGradient>
</defs>
</svg>

