<svg width="5238" height="5238" viewBox="0 0 5238 5238" fill="none" xmlns="http://www.w3.org/2000/svg">
<g clip-path="url(#clip0_6207_5967)">
<rect width="5238" height="5238" rx="2619" fill="url(#paint0_linear_6207_5967)"/>
<path fill-rule="evenodd" clip-rule="evenodd" d="M3907.79 2473.34C3900.59 2409.58 3888.61 2346.08 3871.8 2283.35L2619 2619.03L1366.19 2954.72C1383 3017.44 1404.37 3078.41 1430 3137.22C1785.28 3100.04 2223.05 3018.06 2692.35 2892.31C3161.53 2766.59 3581.56 2618.75 3907.79 2473.34ZM3864.79 2979.89C3555.67 3103.85 3195.64 3223.33 2808.82 3326.98C2421.9 3430.65 2050.26 3507.21 1720.51 3554.42C1795.35 3626.31 1879.13 3689.52 1970.5 3742.27C2268.4 3914.26 2622.42 3960.87 2954.69 3871.84C3286.95 3782.81 3570.24 3565.44 3742.23 3267.53C3794.97 3176.18 3835.92 3079.56 3864.79 2979.89Z" fill="white"/>
<path d="M3871.81 2283.34C3782.78 1951.08 3565.4 1667.79 3267.5 1495.8C2969.6 1323.8 2615.58 1277.2 2283.31 1366.23C1951.05 1455.26 1667.76 1672.63 1495.77 1970.53C1323.77 2268.43 1277.17 2622.45 1366.2 2954.72L2619 2619.03L3871.81 2283.34Z" fill="white"/>
<path fill-rule="evenodd" clip-rule="evenodd" d="M3934.91 2068.69C3976.12 2065.34 4016.07 2062.65 4054.69 2060.62C4253.62 2050.14 4410.23 2057.54 4517.18 2079.6C4570.89 2090.67 4605.12 2104.08 4624.61 2115.81C4628.14 2117.94 4630.84 2119.78 4632.88 2121.32C4631.88 2123.67 4630.46 2126.62 4628.47 2130.23C4617.46 2150.12 4594.52 2178.85 4553.54 2215.3C4471.95 2287.87 4340.03 2372.59 4162.51 2462.98C3809.33 2642.82 3299.79 2833.07 2718.23 2988.9C2136.67 3144.73 1600.27 3234.73 1204.5 3255.58C1005.56 3266.06 848.956 3258.65 742.005 3236.6C688.298 3225.52 654.063 3212.11 634.582 3200.38C631.051 3198.26 628.35 3196.41 626.309 3194.88C627.31 3192.53 628.725 3189.57 630.72 3185.97C641.726 3166.07 664.67 3137.34 705.644 3100.9C787.239 3028.32 919.162 2943.6 1096.68 2853.21C1131.07 2835.7 1166.95 2818.09 1204.23 2800.42C1190.74 2711.21 1185.83 2621.32 1189.35 2531.94C1116.37 2564.8 1047.52 2597.7 983.242 2630.43C797.73 2724.89 644.22 2820.95 539.493 2914.1C487.305 2960.52 441.866 3010.89 411.955 3064.96C381.709 3119.65 362.35 3187.94 381.766 3260.4C401.181 3332.86 452.093 3382.33 505.629 3414.56C558.57 3446.43 623.108 3467.34 691.513 3481.44C828.785 3509.75 1009.75 3516.18 1217.64 3505.23C1635.52 3483.22 2189.74 3389.33 2782.94 3230.38C3376.13 3071.44 3903.05 2875.64 4275.95 2685.76C4461.46 2591.3 4614.97 2495.25 4719.69 2402.1C4771.88 2355.68 4817.32 2305.31 4847.23 2251.23C4877.48 2196.55 4896.84 2128.25 4877.42 2055.79C4858.01 1983.33 4807.09 1933.87 4753.56 1901.63C4700.62 1869.76 4636.08 1848.85 4567.67 1834.75C4430.4 1806.44 4249.43 1800.01 4041.54 1810.96C3969.44 1814.76 3893.27 1820.7 3813.55 1828.74C3861.28 1904.39 3901.99 1984.69 3934.91 2068.69ZM3737.37 2088.64C3700.49 2005.38 3654.61 1926.75 3600.75 1854.08C3264.26 1899.87 2879.25 1977.83 2476.25 2085.81C2073.15 2193.82 1700.65 2318.85 1386.3 2447.47C1376 2537.33 1375.58 2628.37 1385.27 2718.92C1705.58 2581.62 2102.83 2444.69 2540.95 2327.29C2978.97 2209.92 3391.38 2129.9 3737.37 2088.64ZM623.971 3202.2C623.956 3202.21 623.966 3202 624.047 3201.58C624.027 3201.98 623.987 3202.2 623.971 3202.2ZM4638.57 2126.49C4638.55 2126.5 4638.41 2126.33 4638.19 2125.99C4638.47 2126.32 4638.58 2126.49 4638.57 2126.49ZM4635.14 2114.61C4635.16 2114.21 4635.2 2114 4635.22 2113.99C4635.23 2113.99 4635.22 2114.19 4635.14 2114.61ZM620.998 3190.2C620.716 3189.87 620.606 3189.7 620.622 3189.7C620.637 3189.7 620.778 3189.86 620.998 3190.2Z" fill="white"/>
</g>
<defs>
<linearGradient id="paint0_linear_6207_5967" x1="5238" y1="0" x2="-0.000312209" y2="5238" gradientUnits="userSpaceOnUse">
<stop offset="0.181887" stop-color="#8D58B3"/>
<stop offset="0.816473" stop-color="#6576CC"/>
</linearGradient>
<clipPath id="clip0_6207_5967">
<rect width="5238" height="5238" rx="2619" fill="white"/>
</clipPath>
</defs>
</svg>
